<?xml version="1.0" standalone="no"?>
<!DOCTYPE svg PUBLIC "-//W3C//DTD SVG 20010904//EN"
 "http://www.w3.org/TR/2001/REC-SVG-20010904/DTD/svg10.dtd">
<svg version="1.0" xmlns="http://www.w3.org/2000/svg"
 width="955.000000pt" height="104.000000pt" viewBox="0 0 955.000000 104.000000"
 preserveAspectRatio="xMidYMid meet">

<g transform="translate(0.000000,104.000000) scale(0.1,-0.1)"
fill="#000000" stroke="none">
<path d="M8960 745 l0 -155 -1915 0 c-1270 0 -1915 3 -1915 10 0 6 -16 10 -35
10 -28 0 -35 4 -35 20 0 16 -7 20 -30 20 -23 0 -30 -4 -30 -20 0 -18 -7 -20
-55 -20 -48 0 -55 2 -55 20 0 16 -7 20 -30 20 -23 0 -30 -4 -30 -20 0 -16 -7
-20 -30 -20 -16 0 -30 -4 -30 -10 0 -7 -712 -10 -2115 -10 -1873 0 -2115 2
-2115 15 0 10 -11 15 -35 15 -28 0 -35 4 -35 20 0 16 -7 20 -30 20 -23 0 -30
-4 -30 -20 0 -18 -7 -20 -55 -20 -48 0 -55 2 -55 20 0 16 -7 20 -30 20 -23 0
-30 -4 -30 -20 0 -16 -7 -20 -30 -20 -23 0 -30 4 -30 20 0 16 -7 20 -30 20
l-30 0 0 -155 0 -155 30 0 c23 0 30 4 30 20 0 16 7 20 30 20 23 0 30 -4 30
-20 0 -16 7 -20 30 -20 23 0 30 4 30 20 0 18 7 20 55 20 48 0 55 -2 55 -20 0
-16 7 -20 30 -20 23 0 30 4 30 20 0 16 7 20 35 20 24 0 35 5 35 15 0 13 242
15 2115 15 2108 0 2115 0 2115 -20 0 -16 7 -20 30 -20 23 0 30 -4 30 -20 0
-16 7 -20 30 -20 23 0 30 4 30 20 0 18 7 20 55 20 48 0 55 -2 55 -20 0 -16 7
-20 30 -20 23 0 30 4 30 20 0 16 7 20 35 20 24 0 35 5 35 15 0 13 214 15 1865
15 l1865 0 0 -150 c0 -82 3 -150 8 -150 4 0 18 30 31 67 12 37 36 105 53 150
l30 83 199 0 c120 0 199 4 199 10 0 5 -15 44 -34 87 l-35 78 -113 3 -114 3
-54 154 c-30 85 -58 155 -62 155 -5 0 -8 -70 -8 -155z"/>
</g>
</svg>
