<?xml version="1.0" standalone="no"?>
<!DOCTYPE svg PUBLIC "-//W3C//DTD SVG 20010904//EN"
 "http://www.w3.org/TR/2001/REC-SVG-20010904/DTD/svg10.dtd">
<svg version="1.0" xmlns="http://www.w3.org/2000/svg"
 width="955.000000pt" height="104.000000pt" viewBox="0 0 955.000000 104.000000"
 preserveAspectRatio="xMidYMid meet">
<metadata>
Created by potrace 1.16, written by Peter Selinger 2001-2019
</metadata>
<g transform="translate(0.000000,104.000000) scale(0.100000,-0.100000)"
fill="#000000" stroke="none">
<path d="M651 863 c-12 -37 -36 -105 -53 -150 l-30 -83 -199 0 c-120 0 -199
-4 -199 -10 0 -5 15 -44 34 -87 l35 -78 73 -2 c40 -1 91 -2 113 -2 39 -1 41
-2 58 -51 10 -27 22 -50 27 -50 5 0 7 -6 4 -13 -4 -12 15 -72 49 -157 6 -14
10 -28 9 -32 -1 -5 2 -8 8 -8 5 0 8 62 7 155 l-2 155 33 0 c17 0 32 5 32 10 0
6 5 10 11 10 5 0 7 -4 4 -10 -4 -6 40 -10 124 -10 90 0 131 3 131 11 0 9 4 9
14 0 16 -14 2341 -11 2370 3 14 7 17 6 12 -2 -6 -9 122 -12 546 -12 380 1 554
-2 556 -9 2 -6 19 -11 38 -11 27 0 34 -4 34 -20 0 -16 7 -20 30 -20 23 0 30 4
30 20 0 18 7 20 55 20 46 0 55 -3 55 -17 0 -13 9 -18 30 -19 23 -1 30 3 30 17
0 14 7 19 29 19 16 0 31 5 33 10 2 7 159 11 476 10 306 0 472 4 472 10 0 6 5
10 11 10 5 0 7 -4 4 -10 -4 -6 40 -10 124 -10 90 0 131 3 131 11 0 9 4 9 14 0
16 -14 2341 -11 2370 3 14 7 17 6 12 -2 -5 -9 69 -12 303 -12 270 0 311 -2
311 -15 0 -18 50 -21 68 -3 17 17 28 0 14 -22 -17 -28 -16 -30 18 -30 23 0 30
4 30 20 0 18 7 20 55 20 48 0 55 -2 55 -20 0 -16 7 -20 30 -20 23 0 30 4 30
20 0 16 7 20 30 20 23 0 30 -4 30 -20 0 -16 7 -20 30 -20 l30 0 0 155 0 155
-30 0 c-17 0 -29 -3 -29 -7 4 -25 -4 -33 -35 -33 -40 0 -66 8 -66 21 0 6 9 5
20 -1 16 -9 20 -8 20 5 0 10 -10 15 -30 15 -23 0 -30 -4 -30 -20 0 -18 -7 -20
-55 -20 -48 0 -55 2 -55 20 0 16 -7 20 -30 20 -23 0 -30 -4 -30 -20 0 -16 -7
-20 -35 -20 -24 0 -35 -5 -35 -15 0 -13 -49 -15 -377 -15 -331 -1 -3661 0
-3800 0 -46 0 -53 3 -53 20 0 16 -7 20 -30 20 -23 0 -30 4 -30 20 0 16 -7 20
-30 20 -23 0 -30 -4 -30 -20 0 -18 -7 -20 -55 -20 -48 0 -55 2 -55 20 0 16 -7
20 -30 20 -23 0 -30 -4 -30 -20 0 -16 -7 -20 -35 -20 -24 0 -35 -5 -35 -15 0
-17 73 -16 -1144 -15 -574 0 -732 -2 -744 -12 -11 -9 -14 -9 -9 -1 9 15 -1246
18 -1274 2 -13 -6 -19 -6 -19 0 0 7 -92 10 -270 8 l-270 -2 0 153 c0 83 -3
152 -8 152 -4 0 -18 -30 -31 -67z"/>
</g>
</svg>
